REM DIRINDEX 1\2,1\3,1\4,1\5
REM DIRNAME "folder01","folder02","folder03","folder04","folder05"
TITLE ""
FILE "1Q_t_0210-0219.mp3" MP3
  TRACK 01 AUDIO
    TITLE "3:cjc172_1547"
    INDEX 01 00:00:00
  TRACK 02 AUDIO
    TITLE "0:"
    INDEX 01 00:01:08
  TRACK 03 AUDIO
    TITLE "4:cjc172_1548"
    INDEX 01 00:01:27
  TRACK 04 AUDIO
    TITLE "0:"
    INDEX 01 00:03:69
  TRACK 05 AUDIO
    TITLE "5:cjc172_1549"
    INDEX 01 00:04:08
  TRACK 06 AUDIO
    TITLE "0:"
    INDEX 01 00:07:69
  TRACK 07 AUDIO
    TITLE "3:cjc172_1550"
    INDEX 01 00:08:47
  TRACK 08 AUDIO
    TITLE "0:"
    INDEX 01 00:09:62
  TRACK 09 AUDIO
    TITLE "4:cjc172_1551"
    INDEX 01 00:10:05
  TRACK 10 AUDIO
    TITLE "0:"
    INDEX 01 00:11:30
  TRACK 11 AUDIO
    TITLE "5:cjc172_1552"
    INDEX 01 00:11:45
  TRACK 12 AUDIO
    TITLE "0:"
    INDEX 01 00:15:67
  TRACK 13 AUDIO
    TITLE "3:cjc172_1553"
    INDEX 01 00:16:43
  TRACK 14 AUDIO
    TITLE "0:"
    INDEX 01 00:17:56
  TRACK 15 AUDIO
    TITLE "4:cjc172_1554"
    INDEX 01 00:17:71
  TRACK 16 AUDIO
    TITLE "0:"
    INDEX 01 00:21:58
  TRACK 17 AUDIO
    TITLE "5:cjc172_1555"
    INDEX 01 00:21:71
  TRACK 18 AUDIO
    TITLE "0:"
    INDEX 01 00:28:50
  TRACK 19 AUDIO
    TITLE "3:cjc172_1556"
    INDEX 01 00:29:28
  TRACK 20 AUDIO
    TITLE "0:"
    INDEX 01 00:30:37
  TRACK 21 AUDIO
    TITLE "4:cjc172_1557"
    INDEX 01 00:30:51
  TRACK 22 AUDIO
    TITLE "0:"
    INDEX 01 00:33:45
  TRACK 23 AUDIO
    TITLE "5:cjc172_1558"
    INDEX 01 00:33:61
  TRACK 24 AUDIO
    TITLE "0:"
    INDEX 01 00:39:75
  TRACK 25 AUDIO
    TITLE "3:cjc172_1559"
    INDEX 01 00:40:55
  TRACK 26 AUDIO
    TITLE "0:"
    INDEX 01 00:41:68
  TRACK 27 AUDIO
    TITLE "4:cjc172_1560"
    INDEX 01 00:42:09
  TRACK 28 AUDIO
    TITLE "0:"
    INDEX 01 00:50:08
  TRACK 29 AUDIO
    TITLE "5:cjc172_1561"
    INDEX 01 00:50:24
  TRACK 30 AUDIO
    TITLE "0:"
    INDEX 01 00:56:66
  TRACK 31 AUDIO
    TITLE "3:cjc172_1562"
    INDEX 01 00:57:42
  TRACK 32 AUDIO
    TITLE "0:"
    INDEX 01 00:58:45
  TRACK 33 AUDIO
    TITLE "4:cjc172_1563"
    INDEX 01 00:58:59
  TRACK 34 AUDIO
    TITLE "0:"
    INDEX 01 01:02:07
  TRACK 35 AUDIO
    TITLE "5:cjc172_1564"
    INDEX 01 01:02:23
  TRACK 36 AUDIO
    TITLE "0:"
    INDEX 01 01:08:39
  TRACK 37 AUDIO
    TITLE "3:cjc172_1565"
    INDEX 01 01:09:19
  TRACK 38 AUDIO
    TITLE "0:"
    INDEX 01 01:10:40
  TRACK 39 AUDIO
    TITLE "4:cjc172_1566"
    INDEX 01 01:10:56
  TRACK 40 AUDIO
    TITLE "0:"
    INDEX 01 01:13:66
  TRACK 41 AUDIO
    TITLE "5:cjc172_1567"
    INDEX 01 01:14:05
  TRACK 42 AUDIO
    TITLE "0:"
    INDEX 01 01:19:37
  TRACK 43 AUDIO
    TITLE "3:cjc172_1568"
    INDEX 01 01:20:15
  TRACK 44 AUDIO
    TITLE "0:"
    INDEX 01 01:21:32
  TRACK 45 AUDIO
    TITLE "4:cjc172_1569"
    INDEX 01 01:21:50
  TRACK 46 AUDIO
    TITLE "0:"
    INDEX 01 01:24:66
  TRACK 47 AUDIO
    TITLE "5:cjc172_1570"
    INDEX 01 01:25:05
  TRACK 48 AUDIO
    TITLE "0:"
    INDEX 01 01:31:50
  TRACK 49 AUDIO
    TITLE "3:cjc172_1571"
    INDEX 01 01:32:32
  TRACK 50 AUDIO
    TITLE "0:"
    INDEX 01 01:33:63
  TRACK 51 AUDIO
    TITLE "4:cjc172_1572"
    INDEX 01 01:34:02
  TRACK 52 AUDIO
    TITLE "0:"
    INDEX 01 01:39:13
  TRACK 53 AUDIO
    TITLE "5:cjc172_1573"
    INDEX 01 01:39:28
  TRACK 54 AUDIO
    TITLE "0:"
    INDEX 01 01:45:58
  TRACK 55 AUDIO
    TITLE "3:cjc172_1574"
    INDEX 01 01:46:38
  TRACK 56 AUDIO
    TITLE "0:"
    INDEX 01 01:47:53
  TRACK 57 AUDIO
    TITLE "4:cjc172_1575"
    INDEX 01 01:47:71
  TRACK 58 AUDIO
    TITLE "0:"
    INDEX 01 01:49:42
  TRACK 59 AUDIO
    TITLE "5:cjc172_1576"
    INDEX 01 01:49:56
  TRACK 60 AUDIO
    TITLE "0:"
    INDEX 01 01:54:18
